HIERARCHY
ROOT Hips
{
	OFFSET	0.00	0.00	0.00
	CHANNELS 6 Xposition Yposition Zposition Zrotation Xrotation Yrotation
	JOINT LeftUpLeg
	{
		OFFSET	 0.126116	-0.014019	-0.065224
		CHANNELS 3 Zrotation Xrotation Yrotation
		JOINT LeftLeg
		{
			OFFSET	 0.000000	 0.000000	 0.569914
			CHANNELS 3 Zrotation Xrotation Yrotation
			JOINT LeftFoot
			{
				OFFSET	 0.000000	 0.000000	 0.544423
				CHANNELS 3 Zrotation Xrotation Yrotation
				JOINT LeftToeBase
				{
					OFFSET	 0.000000	 0.000000	 0.207117
					CHANNELS 3 Zrotation Xrotation Yrotation
					End Site
					{
						OFFSET	 0.000000	 0.000000	 0.207117
					}
				}
			}
		}
	}
	JOINT RightUpLeg
	{
		OFFSET	-0.124023	-0.008373	-0.065224
		CHANNELS 3 Zrotation Xrotation Yrotation
		JOINT RightLeg
		{
			OFFSET	 0.000000	 0.000000	 0.570047
			CHANNELS 3 Zrotation Xrotation Yrotation
			JOINT RightFoot
			{
				OFFSET	 0.000000	 0.000000	 0.544354
				CHANNELS 3 Zrotation Xrotation Yrotation
				JOINT RightToeBase
				{
					OFFSET	 0.000000	 0.000000	 0.207540
					CHANNELS 3 Zrotation Xrotation Yrotation
					End Site
					{
						OFFSET	 0.000000	 0.000000	 0.207540
					}
				}
			}
		}
	}
	JOINT Spine
	{
		OFFSET	 0.000184	-0.007763	 0.117403
		CHANNELS 3 Zrotation Xrotation Yrotation
		JOINT Spine1
		{
			OFFSET	 0.000000	 0.000000	 0.137269
			CHANNELS 3 Zrotation Xrotation Yrotation
			JOINT Spine2
			{
				OFFSET	 0.000000	 0.000000	 0.156879
				CHANNELS 3 Zrotation Xrotation Yrotation
				JOINT LeftShoulder
				{
					OFFSET	 0.080501	-0.002496	 0.160144
					CHANNELS 3 Zrotation Xrotation Yrotation
					JOINT LeftArm
					{
						OFFSET	 0.000000	 0.000000	 0.164363
						CHANNELS 3 Zrotation Xrotation Yrotation
						JOINT LeftForeArm
						{
							OFFSET	 0.000000	 0.000000	 0.364576
							CHANNELS 3 Zrotation Xrotation Yrotation
							JOINT LeftHand
							{
								OFFSET	 0.000000	 0.000000	 0.360812
								CHANNELS 3 Zrotation Xrotation Yrotation
								JOINT LeftHandIndex1
								{
									OFFSET	 0.000000	 0.000000	 0.086006
									CHANNELS 3 Zrotation Xrotation Yrotation
									JOINT LeftHandIndex2
									{
										OFFSET	 0.000000	 0.000000	 0.047236
										CHANNELS 3 Zrotation Xrotation Yrotation
										JOINT LeftHandIndex3
										{
											OFFSET	-0.004284	-0.000551	 0.038166
											CHANNELS 3 Zrotation Xrotation Yrotation
											End Site
											{
												OFFSET	-0.004284	-0.000551	 0.038166
											}
										}
									}
								}
							}
						}
					}
				}
				JOINT Neck
				{
					OFFSET	 0.000000	 0.000000	 0.176489
					CHANNELS 3 Zrotation Xrotation Yrotation
					JOINT Head
					{
						OFFSET	 0.000000	-0.001747	 0.077940
						CHANNELS 3 Zrotation Xrotation Yrotation
						End Site
						{
							OFFSET	 0.000000	-0.001747	 0.077940
						}
					}
				}
				JOINT RightShoulder
				{
					OFFSET	-0.080363	 0.000306	 0.159706
					CHANNELS 3 Zrotation Xrotation Yrotation
					JOINT RightArm
					{
						OFFSET	 0.000000	 0.000000	 0.164196
						CHANNELS 3 Zrotation Xrotation Yrotation
						JOINT RightForeArm
						{
							OFFSET	 0.000000	 0.000000	 0.365611
							CHANNELS 3 Zrotation Xrotation Yrotation
							JOINT RightHand
							{
								OFFSET	 0.000000	 0.000000	 0.360648
								CHANNELS 3 Zrotation Xrotation Yrotation
								JOINT RightHandIndex1
								{
									OFFSET	 0.000000	 0.000000	 0.069977
									CHANNELS 3 Zrotation Xrotation Yrotation
									JOINT RightHandIndex2
									{
										OFFSET	 0.000000	 0.000000	 0.052305
										CHANNELS 3 Zrotation Xrotation Yrotation
										JOINT RightHandIndex3
										{
											OFFSET	 0.009002	-0.000782	 0.042196
											CHANNELS 3 Zrotation Xrotation Yrotation
											End Site
											{
												OFFSET	 0.009002	-0.000782	 0.042196
											}
										}
									}
								}
							}
						}
					}
				}
			}
		}
	}
}
MOTION
Frames:    7
Frame Time: 0.03333334
-0.000360	 0.043926	 1.277622	-0.059460	 2.983152	 0.435189	-5.246160	-5.371028	 179.075900	 2.160507	-11.542690	 0.515998	-0.025684	 70.432240	-0.051735	-2.385833	 28.452750	 0.000004	 12.744200	-4.902164	-179.015600	-0.796246	-10.026780	 0.758795	 5.020761	 69.436690	 1.305531	 2.384659	 28.388700	-0.000001	-6.264213	 6.738540	 1.508178	-3.175754	-5.153859	-0.494926	 9.732701	 7.978244	-0.780455	-91.040790	 68.925080	-177.538300	-7.608873	 1.286649	-4.252695	 24.026910	-7.326475	-27.945410	-8.008513	-22.108690	-4.553694	-2.027600	 6.559038	 9.033609	-5.188889	 0.308190	 3.541030	-5.234859	 0.342567	 0.430617	 4.643929	 20.040660	-7.405257	 4.971833	-15.247840	 2.248811	 88.838940	 67.497020	 177.019900	 8.457050	 5.438060	 9.009793	-27.188110	-7.236196	 19.543680	 5.312537	-21.747990	 6.054251	 1.803333	 3.979147	-15.098590	 4.898592	 3.004813	-9.310344	 5.224449	 0.395017	 2.014677
-0.000878	 0.046483	 1.278676	 0.008560	 3.826472	 0.458731	-5.513773	-5.939911	 178.910100	 2.066207	-10.598100	 0.470850	-0.385715	 69.845950	 0.348536	-2.385833	 28.452750	 0.000004	 12.714940	-5.255947	-178.782200	-0.807328	-8.682243	 0.656207	 4.950306	 68.581420	 1.360661	 2.384659	 28.388700	-0.000001	-6.182016	 7.159154	 1.639745	-3.256010	-7.130902	-0.804577	 9.721155	 9.934678	-0.946201	-90.921850	 68.100130	-177.300900	-7.239802	 1.100918	-4.826480	 23.435070	-7.308197	-28.999770	-6.812673	-23.521190	-5.094313	-2.027600	 6.559038	 9.033609	-5.188889	 0.308190	 3.541030	-5.234859	 0.342567	 0.430617	 4.717721	 22.500080	-8.128264	 5.367293	-17.238730	 2.405483	 88.622270	 65.979900	 176.651100	 7.615955	 4.286125	 9.933136	-27.023890	-7.473394	 20.299890	 3.610663	-22.498020	 5.666349	 1.803333	 3.979147	-15.098590	 4.898592	 3.004813	-9.310344	 5.224449	 0.395017	 2.014677
-0.001615	 0.050853	 1.279928	 0.117438	 5.134920	 0.514750	-5.667589	-6.928786	 178.644300	 2.191165	-9.298710	 0.411706	-0.947132	 69.023290	 0.956038	-2.385833	 28.452760	 0.000004	 12.598950	-5.746524	-178.429200	-0.978929	-6.423242	 0.467024	 5.008359	 67.174220	 1.431712	 2.384659	 28.388700	-0.000001	-5.978820	 7.674661	 1.767766	-3.395014	-9.923244	-1.211486	 9.581231	 12.518180	-1.183122	-90.826120	 66.880420	-177.216800	-6.478530	 1.262112	-5.253976	 22.200400	-7.049219	-30.672970	-5.877620	-25.381600	-6.126147	-2.027600	 6.559038	 9.033609	-5.188889	 0.308190	 3.541030	-5.234859	 0.342567	 0.430617	 4.621392	 25.131440	-8.756196	 5.810114	-19.476150	 2.543739	 88.414040	 63.867980	 176.437900	 6.304341	 3.156461	 10.763190	-26.482370	-7.712586	 21.481010	 1.507810	-23.439000	 5.450162	 1.803333	 3.979147	-15.098590	 4.898592	 3.004813	-9.310344	 5.224449	 0.395017	 2.014677
-0.002348	 0.056962	 1.281018	 0.278670	 6.827506	 0.599660	-6.107332	-8.357713	 178.241500	 2.083673	-7.884963	 0.343202	-1.600687	 68.029610	 1.701150	-2.385832	 28.452790	-0.000001	 12.371370	-5.803988	-177.929400	-1.357869	-2.265172	 0.147935	 5.184033	 64.761510	 1.652209	 2.384659	 28.388700	-0.000001	-5.667812	 8.049580	 1.808680	-3.586694	-13.146960	-1.619358	 9.253814	 15.150970	-1.431706	-90.931020	 65.425690	-177.708100	-5.070090	 1.875324	-4.947497	 20.274560	-6.315235	-32.586750	-5.972685	-27.081010	-7.622345	-2.027600	 6.559038	 9.033609	-5.188889	 0.308190	 3.541030	-5.234859	 0.342567	 0.430617	 4.185907	 26.627110	-8.824667	 6.024767	-20.976130	 2.493729	 88.465170	 61.721550	 176.852800	 4.317530	 2.629239	 10.796480	-25.455270	-7.746722	 22.769860	-0.400936	-24.264860	 5.710000	 1.803333	 3.979147	-15.098590	 4.898592	 3.004813	-9.310344	 5.224449	 0.395017	 2.014677
-0.002628	 0.064118	 1.280736	 0.569406	 8.687371	 0.611015	-6.635399	-10.787390	 177.863800	 1.985579	-8.006400	 0.334766	-2.129463	 67.521790	 2.392195	-2.385833	 28.452760	 0.000004	 12.011260	-7.590726	-177.457100	-1.591963	-1.243111	 0.077210	 5.819545	 63.879080	 1.124830	 2.384659	 28.388700	-0.000001	-5.408033	 7.961396	 1.754982	-3.766100	-16.318030	-1.980437	 8.839536	 17.239320	-1.496149	-91.514150	 64.862410	-179.308200	-3.369023	 3.657773	-2.851205	 19.156230	-5.986200	-34.444420	-6.222484	-28.071330	-8.970658	-2.027600	 6.559038	 9.033609	-5.188889	 0.308190	 3.541030	-5.234859	 0.342567	 0.430617	 3.720837	 26.946060	-8.744246	 6.043468	-21.690900	 2.470350	 89.006140	 60.987030	 178.192800	 1.931655	 4.053806	 9.132633	-24.776040	-7.876291	 23.977700	-1.963039	-25.030530	 5.916980	 1.803333	 3.979147	-15.098590	 4.898592	 3.004813	-9.310344	 5.224449	 0.395017	 2.014677
-0.002933	 0.073006	 1.279617	 0.796149	 10.841810	 0.548397	-7.131184	-14.098430	 177.474500	 1.974715	-9.109495	 0.378802	-2.878875	 67.563970	 3.242513	-2.385832	 28.452790	-0.000001	 11.924580	-11.733820	-176.976100	-1.775244	-4.249468	 0.250079	 7.277731	 65.027910	-0.312354	 2.384659	 28.388700	-0.000001	-5.072983	 7.634008	 1.751919	-3.844721	-18.897010	-2.274205	 8.341014	 18.775260	-1.307022	-92.269930	 64.983440	 178.689200	-1.583200	 6.458525	-0.305046	 18.907980	-6.274127	-36.511550	-5.911470	-28.953800	-9.706318	-2.027600	 6.559038	 9.033609	-5.188889	 0.308190	 3.541030	-5.234859	 0.342567	 0.430617	 3.291050	 25.878160	-8.921825	 5.873902	-21.615630	 2.311862	 89.742100	 60.471530	 179.908300	-0.350334	 6.393397	 7.060330	-23.687090	-7.870990	 25.476040	-2.838890	-26.045450	 6.117444	 1.803333	 3.979147	-15.098590	 4.898592	 3.004813	-9.310344	 5.224449	 0.395017	 2.014677
-0.003708	 0.085331	 1.278407	 1.439882	 13.893230	 0.548146	-8.186571	-18.806630	 176.662300	 2.313053	-10.681860	 0.506313	-4.328494	 67.515720	 4.507096	-2.385832	 28.452790	-0.000001	 11.377260	-15.909860	-176.380900	-1.693148	-4.972363	 0.299663	 7.978237	 64.536640	-1.238198	 2.384659	 28.388700	-0.000001	-4.839345	 6.907459	 1.653687	-4.028656	-20.709760	-2.534841	 7.649343	 19.399460	-1.121091	-93.037730	 65.212380	 176.614700	 0.954570	 9.869462	 2.015570	 18.767820	-6.795088	-39.189170	-5.366114	-29.562560	-10.189200	-2.027600	 6.559038	 9.033609	-5.188889	 0.308190	 3.541030	-5.234859	 0.342567	 0.430617	 2.905169	 24.830650	-8.816552	 5.578288	-21.625690	 2.106519	 90.570760	 60.376900	-178.200200	-2.823202	 9.598897	 5.201868	-22.493450	-7.856524	 27.286270	-3.421630	-26.926980	 6.456312	 1.803333	 3.979147	-15.098590	 4.898592	 3.004813	-9.310344	 5.224449	 0.395017	 2.014677
